<mxfile host="app.diagrams.net" modified="2021-02-24T07:21:35.819Z" agent="5.0 (Windows NT 6.1; Win64; x64) AppleWebKit/537.36 (KHTML, like Gecko) Chrome/84.0.4147.89 Safari/537.36" etag="Xx6bef7LsJFDRHoSl3-7" version="14.2.9" type="github">
  <diagram id="gUW_gxuXwpB0K3utl5sX" name="Page-1">
    <mxGraphModel dx="1304" dy="509" grid="1" gridSize="10" guides="1" tooltips="1" connect="1" arrows="1" fold="1" page="1" pageScale="1" pageWidth="827" pageHeight="1169" math="0" shadow="0">
      <root>
        <mxCell id="0" />
        <mxCell id="1" parent="0" />
        <mxCell id="UgdYV5Sys4c05eqZEx1u-29" value="Pool" style="swimlane;html=1;childLayout=stackLayout;resizeParent=1;resizeParentMax=0;startSize=20;horizontal=0;horizontalStack=1;" parent="1" vertex="1">
          <mxGeometry x="170" y="70" width="850" height="2500" as="geometry" />
        </mxCell>
        <mxCell id="UgdYV5Sys4c05eqZEx1u-30" value="APP" style="swimlane;html=1;startSize=20;" parent="UgdYV5Sys4c05eqZEx1u-29" vertex="1">
          <mxGeometry x="20" width="310" height="2500" as="geometry" />
        </mxCell>
        <mxCell id="UgdYV5Sys4c05eqZEx1u-51" style="edgeStyle=orthogonalEdgeStyle;rounded=0;orthogonalLoop=1;jettySize=auto;html=1;entryX=0.5;entryY=0;entryDx=0;entryDy=0;" parent="UgdYV5Sys4c05eqZEx1u-30" source="UgdYV5Sys4c05eqZEx1u-35" target="UgdYV5Sys4c05eqZEx1u-41" edge="1">
          <mxGeometry relative="1" as="geometry" />
        </mxCell>
        <mxCell id="UgdYV5Sys4c05eqZEx1u-35" value="打开APP" style="strokeWidth=2;html=1;shape=mxgraph.flowchart.start_1;whiteSpace=wrap;" parent="UgdYV5Sys4c05eqZEx1u-30" vertex="1">
          <mxGeometry x="100" y="330" width="100" height="60" as="geometry" />
        </mxCell>
        <mxCell id="UgdYV5Sys4c05eqZEx1u-41" value="用户注册" style="whiteSpace=wrap;html=1;" parent="UgdYV5Sys4c05eqZEx1u-30" vertex="1">
          <mxGeometry x="90" y="495" width="120" height="60" as="geometry" />
        </mxCell>
        <mxCell id="UgdYV5Sys4c05eqZEx1u-129" value="用户登录" style="whiteSpace=wrap;html=1;" parent="UgdYV5Sys4c05eqZEx1u-30" vertex="1">
          <mxGeometry x="90" y="910" width="120" height="60" as="geometry" />
        </mxCell>
        <mxCell id="UgdYV5Sys4c05eqZEx1u-131" value="跳转默认单位页面" style="whiteSpace=wrap;html=1;" parent="UgdYV5Sys4c05eqZEx1u-30" vertex="1">
          <mxGeometry x="90" y="990" width="120" height="60" as="geometry" />
        </mxCell>
        <mxCell id="UgdYV5Sys4c05eqZEx1u-136" value="用户名、密码" style="text;html=1;align=center;verticalAlign=middle;resizable=0;points=[];autosize=1;" parent="UgdYV5Sys4c05eqZEx1u-30" vertex="1">
          <mxGeometry x="210" y="900" width="90" height="20" as="geometry" />
        </mxCell>
        <mxCell id="87xFtUxxgs9xbds1OP3f-34" style="edgeStyle=orthogonalEdgeStyle;rounded=0;orthogonalLoop=1;jettySize=auto;html=1;" edge="1" parent="UgdYV5Sys4c05eqZEx1u-30" source="UgdYV5Sys4c05eqZEx1u-137" target="UgdYV5Sys4c05eqZEx1u-144">
          <mxGeometry relative="1" as="geometry" />
        </mxCell>
        <mxCell id="UgdYV5Sys4c05eqZEx1u-137" value="跳转到扫码页面" style="whiteSpace=wrap;html=1;" parent="UgdYV5Sys4c05eqZEx1u-30" vertex="1">
          <mxGeometry x="90" y="1150" width="120" height="60" as="geometry" />
        </mxCell>
        <mxCell id="UgdYV5Sys4c05eqZEx1u-141" value="跳转到单位选择页面" style="whiteSpace=wrap;html=1;" parent="UgdYV5Sys4c05eqZEx1u-30" vertex="1">
          <mxGeometry x="90" y="1070" width="120" height="60" as="geometry" />
        </mxCell>
        <mxCell id="UgdYV5Sys4c05eqZEx1u-155" style="edgeStyle=orthogonalEdgeStyle;rounded=0;orthogonalLoop=1;jettySize=auto;html=1;entryX=0.5;entryY=0;entryDx=0;entryDy=0;" parent="UgdYV5Sys4c05eqZEx1u-30" source="UgdYV5Sys4c05eqZEx1u-144" target="UgdYV5Sys4c05eqZEx1u-203" edge="1">
          <mxGeometry relative="1" as="geometry">
            <mxPoint x="150" y="1350" as="targetPoint" />
          </mxGeometry>
        </mxCell>
        <mxCell id="UgdYV5Sys4c05eqZEx1u-144" value="扫码二维码" style="whiteSpace=wrap;html=1;" parent="UgdYV5Sys4c05eqZEx1u-30" vertex="1">
          <mxGeometry x="90" y="1250" width="120" height="60" as="geometry" />
        </mxCell>
        <mxCell id="UgdYV5Sys4c05eqZEx1u-160" value="钱包id" style="text;html=1;align=center;verticalAlign=middle;resizable=0;points=[];autosize=1;" parent="UgdYV5Sys4c05eqZEx1u-30" vertex="1">
          <mxGeometry x="240" y="1240" width="50" height="20" as="geometry" />
        </mxCell>
        <mxCell id="UgdYV5Sys4c05eqZEx1u-212" style="edgeStyle=orthogonalEdgeStyle;rounded=0;orthogonalLoop=1;jettySize=auto;html=1;entryX=0;entryY=0.5;entryDx=0;entryDy=0;" parent="UgdYV5Sys4c05eqZEx1u-30" source="UgdYV5Sys4c05eqZEx1u-203" target="UgdYV5Sys4c05eqZEx1u-144" edge="1">
          <mxGeometry relative="1" as="geometry">
            <Array as="points">
              <mxPoint x="50" y="1380" />
              <mxPoint x="50" y="1280" />
            </Array>
          </mxGeometry>
        </mxCell>
        <mxCell id="UgdYV5Sys4c05eqZEx1u-203" value="&lt;span&gt;用户确认&lt;br&gt;绑定？&lt;/span&gt;" style="rhombus;whiteSpace=wrap;html=1;" parent="UgdYV5Sys4c05eqZEx1u-30" vertex="1">
          <mxGeometry x="110" y="1340" width="80" height="80" as="geometry" />
        </mxCell>
        <mxCell id="UgdYV5Sys4c05eqZEx1u-202" value="是" style="text;html=1;align=center;verticalAlign=middle;resizable=0;points=[];autosize=1;" parent="UgdYV5Sys4c05eqZEx1u-30" vertex="1">
          <mxGeometry x="224" y="1410" width="30" height="20" as="geometry" />
        </mxCell>
        <mxCell id="UgdYV5Sys4c05eqZEx1u-211" value="是" style="text;html=1;align=center;verticalAlign=middle;resizable=0;points=[];autosize=1;" parent="UgdYV5Sys4c05eqZEx1u-30" vertex="1">
          <mxGeometry x="160" y="1460" width="30" height="20" as="geometry" />
        </mxCell>
        <mxCell id="UgdYV5Sys4c05eqZEx1u-161" value="钱包信息" style="text;html=1;align=center;verticalAlign=middle;resizable=0;points=[];autosize=1;" parent="UgdYV5Sys4c05eqZEx1u-30" vertex="1">
          <mxGeometry x="235" y="1300" width="60" height="20" as="geometry" />
        </mxCell>
        <mxCell id="UgdYV5Sys4c05eqZEx1u-213" value="否" style="text;html=1;align=center;verticalAlign=middle;resizable=0;points=[];autosize=1;" parent="UgdYV5Sys4c05eqZEx1u-30" vertex="1">
          <mxGeometry x="60" y="1350" width="30" height="20" as="geometry" />
        </mxCell>
        <mxCell id="87xFtUxxgs9xbds1OP3f-35" value="是否成为分户？" style="rhombus;whiteSpace=wrap;html=1;" vertex="1" parent="UgdYV5Sys4c05eqZEx1u-30">
          <mxGeometry x="105" y="1470" width="90" height="100" as="geometry" />
        </mxCell>
        <mxCell id="87xFtUxxgs9xbds1OP3f-37" value="是" style="text;html=1;align=center;verticalAlign=middle;resizable=0;points=[];autosize=1;" vertex="1" parent="UgdYV5Sys4c05eqZEx1u-30">
          <mxGeometry x="160" y="1590" width="30" height="20" as="geometry" />
        </mxCell>
        <mxCell id="UgdYV5Sys4c05eqZEx1u-53" style="edgeStyle=orthogonalEdgeStyle;rounded=0;orthogonalLoop=1;jettySize=auto;html=1;" parent="UgdYV5Sys4c05eqZEx1u-29" source="UgdYV5Sys4c05eqZEx1u-41" target="UgdYV5Sys4c05eqZEx1u-52" edge="1">
          <mxGeometry relative="1" as="geometry" />
        </mxCell>
        <mxCell id="UgdYV5Sys4c05eqZEx1u-54" value="提交" style="edgeLabel;html=1;align=center;verticalAlign=middle;resizable=0;points=[];" parent="UgdYV5Sys4c05eqZEx1u-53" vertex="1" connectable="0">
          <mxGeometry x="-0.2754" y="2" relative="1" as="geometry">
            <mxPoint as="offset" />
          </mxGeometry>
        </mxCell>
        <mxCell id="UgdYV5Sys4c05eqZEx1u-55" style="edgeStyle=orthogonalEdgeStyle;rounded=0;orthogonalLoop=1;jettySize=auto;html=1;exitX=0.5;exitY=1;exitDx=0;exitDy=0;entryX=1;entryY=1;entryDx=0;entryDy=0;" parent="UgdYV5Sys4c05eqZEx1u-29" source="UgdYV5Sys4c05eqZEx1u-52" edge="1" target="UgdYV5Sys4c05eqZEx1u-41">
          <mxGeometry relative="1" as="geometry">
            <mxPoint x="210" y="560" as="targetPoint" />
            <Array as="points">
              <mxPoint x="465" y="600" />
              <mxPoint x="270" y="600" />
              <mxPoint x="270" y="555" />
            </Array>
          </mxGeometry>
        </mxCell>
        <mxCell id="UgdYV5Sys4c05eqZEx1u-56" value="注册失败" style="edgeLabel;html=1;align=center;verticalAlign=middle;resizable=0;points=[];" parent="UgdYV5Sys4c05eqZEx1u-55" vertex="1" connectable="0">
          <mxGeometry x="-0.2604" y="3" relative="1" as="geometry">
            <mxPoint y="-13" as="offset" />
          </mxGeometry>
        </mxCell>
        <mxCell id="UgdYV5Sys4c05eqZEx1u-98" style="edgeStyle=orthogonalEdgeStyle;rounded=0;orthogonalLoop=1;jettySize=auto;html=1;entryX=1;entryY=0.5;entryDx=0;entryDy=0;" parent="UgdYV5Sys4c05eqZEx1u-29" source="UgdYV5Sys4c05eqZEx1u-78" target="UgdYV5Sys4c05eqZEx1u-87" edge="1">
          <mxGeometry relative="1" as="geometry" />
        </mxCell>
        <mxCell id="UgdYV5Sys4c05eqZEx1u-100" style="edgeStyle=orthogonalEdgeStyle;rounded=0;orthogonalLoop=1;jettySize=auto;html=1;exitX=0.5;exitY=1;exitDx=0;exitDy=0;" parent="UgdYV5Sys4c05eqZEx1u-29" source="UgdYV5Sys4c05eqZEx1u-87" target="UgdYV5Sys4c05eqZEx1u-78" edge="1">
          <mxGeometry relative="1" as="geometry">
            <Array as="points">
              <mxPoint x="465" y="320" />
              <mxPoint x="550" y="320" />
              <mxPoint x="550" y="280" />
            </Array>
          </mxGeometry>
        </mxCell>
        <mxCell id="UgdYV5Sys4c05eqZEx1u-133" style="edgeStyle=orthogonalEdgeStyle;rounded=0;orthogonalLoop=1;jettySize=auto;html=1;entryX=0;entryY=0.5;entryDx=0;entryDy=0;" parent="UgdYV5Sys4c05eqZEx1u-29" source="UgdYV5Sys4c05eqZEx1u-129" target="UgdYV5Sys4c05eqZEx1u-132" edge="1">
          <mxGeometry relative="1" as="geometry">
            <Array as="points">
              <mxPoint x="360" y="940" />
              <mxPoint x="360" y="940" />
            </Array>
          </mxGeometry>
        </mxCell>
        <mxCell id="UgdYV5Sys4c05eqZEx1u-134" style="edgeStyle=orthogonalEdgeStyle;rounded=0;orthogonalLoop=1;jettySize=auto;html=1;entryX=1;entryY=0.5;entryDx=0;entryDy=0;" parent="UgdYV5Sys4c05eqZEx1u-29" source="UgdYV5Sys4c05eqZEx1u-132" target="UgdYV5Sys4c05eqZEx1u-131" edge="1">
          <mxGeometry relative="1" as="geometry">
            <Array as="points">
              <mxPoint x="455" y="1050" />
              <mxPoint x="316" y="1050" />
              <mxPoint x="316" y="1020" />
            </Array>
          </mxGeometry>
        </mxCell>
        <mxCell id="UgdYV5Sys4c05eqZEx1u-138" style="edgeStyle=orthogonalEdgeStyle;rounded=0;orthogonalLoop=1;jettySize=auto;html=1;entryX=1;entryY=0.5;entryDx=0;entryDy=0;" parent="UgdYV5Sys4c05eqZEx1u-29" source="UgdYV5Sys4c05eqZEx1u-132" target="UgdYV5Sys4c05eqZEx1u-137" edge="1">
          <mxGeometry relative="1" as="geometry">
            <Array as="points">
              <mxPoint x="455" y="1180" />
            </Array>
          </mxGeometry>
        </mxCell>
        <mxCell id="UgdYV5Sys4c05eqZEx1u-142" style="edgeStyle=orthogonalEdgeStyle;rounded=0;orthogonalLoop=1;jettySize=auto;html=1;entryX=1;entryY=0.5;entryDx=0;entryDy=0;" parent="UgdYV5Sys4c05eqZEx1u-29" source="UgdYV5Sys4c05eqZEx1u-132" target="UgdYV5Sys4c05eqZEx1u-141" edge="1">
          <mxGeometry relative="1" as="geometry">
            <Array as="points">
              <mxPoint x="455" y="1100" />
            </Array>
          </mxGeometry>
        </mxCell>
        <mxCell id="UgdYV5Sys4c05eqZEx1u-146" style="edgeStyle=orthogonalEdgeStyle;rounded=0;orthogonalLoop=1;jettySize=auto;html=1;entryX=0;entryY=0.5;entryDx=0;entryDy=0;" parent="UgdYV5Sys4c05eqZEx1u-29" source="UgdYV5Sys4c05eqZEx1u-203" target="UgdYV5Sys4c05eqZEx1u-145" edge="1">
          <mxGeometry relative="1" as="geometry">
            <mxPoint x="230" y="1380" as="sourcePoint" />
            <Array as="points">
              <mxPoint x="170" y="1440" />
            </Array>
          </mxGeometry>
        </mxCell>
        <mxCell id="UgdYV5Sys4c05eqZEx1u-158" style="edgeStyle=orthogonalEdgeStyle;rounded=0;orthogonalLoop=1;jettySize=auto;html=1;" parent="UgdYV5Sys4c05eqZEx1u-29" source="UgdYV5Sys4c05eqZEx1u-144" target="UgdYV5Sys4c05eqZEx1u-180" edge="1">
          <mxGeometry relative="1" as="geometry">
            <mxPoint x="390" y="1270" as="targetPoint" />
            <Array as="points">
              <mxPoint x="465" y="1260" />
            </Array>
          </mxGeometry>
        </mxCell>
        <mxCell id="UgdYV5Sys4c05eqZEx1u-159" style="edgeStyle=orthogonalEdgeStyle;rounded=0;orthogonalLoop=1;jettySize=auto;html=1;exitX=0.016;exitY=0.629;exitDx=0;exitDy=0;exitPerimeter=0;" parent="UgdYV5Sys4c05eqZEx1u-29" source="UgdYV5Sys4c05eqZEx1u-180" target="UgdYV5Sys4c05eqZEx1u-144" edge="1">
          <mxGeometry relative="1" as="geometry">
            <mxPoint x="390" y="1290" as="sourcePoint" />
            <Array as="points">
              <mxPoint x="405" y="1324" />
              <mxPoint x="405" y="1300" />
            </Array>
          </mxGeometry>
        </mxCell>
        <mxCell id="UgdYV5Sys4c05eqZEx1u-209" style="edgeStyle=orthogonalEdgeStyle;rounded=0;orthogonalLoop=1;jettySize=auto;html=1;entryX=1;entryY=0.5;entryDx=0;entryDy=0;" parent="UgdYV5Sys4c05eqZEx1u-29" source="UgdYV5Sys4c05eqZEx1u-145" target="87xFtUxxgs9xbds1OP3f-35" edge="1">
          <mxGeometry relative="1" as="geometry">
            <Array as="points">
              <mxPoint x="470" y="1520" />
            </Array>
            <mxPoint x="230" y="1520" as="targetPoint" />
          </mxGeometry>
        </mxCell>
        <mxCell id="UgdYV5Sys4c05eqZEx1u-32" value="服务" style="swimlane;html=1;startSize=20;" parent="UgdYV5Sys4c05eqZEx1u-29" vertex="1">
          <mxGeometry x="330" width="280" height="2500" as="geometry" />
        </mxCell>
        <mxCell id="UgdYV5Sys4c05eqZEx1u-52" value="注册成功？" style="rhombus;whiteSpace=wrap;html=1;" parent="UgdYV5Sys4c05eqZEx1u-32" vertex="1">
          <mxGeometry x="95" y="485" width="80" height="80" as="geometry" />
        </mxCell>
        <mxCell id="UgdYV5Sys4c05eqZEx1u-60" value="保存用户信息&lt;br&gt;（手机用户表，&lt;br&gt;不是AbpUser）" style="strokeWidth=2;html=1;shape=mxgraph.flowchart.direct_data;whiteSpace=wrap;" parent="UgdYV5Sys4c05eqZEx1u-32" vertex="1">
          <mxGeometry x="60" y="640" width="150" height="90" as="geometry" />
        </mxCell>
        <mxCell id="UgdYV5Sys4c05eqZEx1u-58" value="" style="endArrow=classic;html=1;exitX=0.5;exitY=1;exitDx=0;exitDy=0;entryX=0.5;entryY=0;entryDx=0;entryDy=0;entryPerimeter=0;" parent="UgdYV5Sys4c05eqZEx1u-32" source="UgdYV5Sys4c05eqZEx1u-52" target="UgdYV5Sys4c05eqZEx1u-60" edge="1">
          <mxGeometry width="50" height="50" relative="1" as="geometry">
            <mxPoint x="-50" y="250" as="sourcePoint" />
            <mxPoint x="135" y="370" as="targetPoint" />
          </mxGeometry>
        </mxCell>
        <mxCell id="UgdYV5Sys4c05eqZEx1u-83" value="1.保存单位信息&lt;br&gt;2.生成“用户”角色&lt;br&gt;3.生成管理员账号&lt;br&gt;4.创建“用户”角色的初始权限" style="strokeWidth=2;html=1;shape=mxgraph.flowchart.direct_data;whiteSpace=wrap;" parent="UgdYV5Sys4c05eqZEx1u-32" vertex="1">
          <mxGeometry x="23.75" y="350" width="222.5" height="60" as="geometry" />
        </mxCell>
        <mxCell id="UgdYV5Sys4c05eqZEx1u-96" style="edgeStyle=orthogonalEdgeStyle;rounded=0;orthogonalLoop=1;jettySize=auto;html=1;entryX=0.5;entryY=0;entryDx=0;entryDy=0;entryPerimeter=0;" parent="UgdYV5Sys4c05eqZEx1u-32" source="UgdYV5Sys4c05eqZEx1u-87" target="UgdYV5Sys4c05eqZEx1u-83" edge="1">
          <mxGeometry relative="1" as="geometry" />
        </mxCell>
        <mxCell id="UgdYV5Sys4c05eqZEx1u-87" value="创建单位&lt;br&gt;成功？" style="rhombus;whiteSpace=wrap;html=1;" parent="UgdYV5Sys4c05eqZEx1u-32" vertex="1">
          <mxGeometry x="95" y="220" width="80" height="80" as="geometry" />
        </mxCell>
        <mxCell id="UgdYV5Sys4c05eqZEx1u-97" value="成功" style="text;html=1;align=center;verticalAlign=middle;resizable=0;points=[];autosize=1;" parent="UgdYV5Sys4c05eqZEx1u-32" vertex="1">
          <mxGeometry x="80" y="320" width="40" height="20" as="geometry" />
        </mxCell>
        <mxCell id="UgdYV5Sys4c05eqZEx1u-61" value="注册成功" style="text;html=1;align=center;verticalAlign=middle;resizable=0;points=[];autosize=1;" parent="UgdYV5Sys4c05eqZEx1u-32" vertex="1">
          <mxGeometry x="140" y="570" width="60" height="20" as="geometry" />
        </mxCell>
        <mxCell id="UgdYV5Sys4c05eqZEx1u-101" value="返回结果" style="text;html=1;align=center;verticalAlign=middle;resizable=0;points=[];autosize=1;" parent="UgdYV5Sys4c05eqZEx1u-32" vertex="1">
          <mxGeometry x="165" y="280" width="60" height="20" as="geometry" />
        </mxCell>
        <mxCell id="UgdYV5Sys4c05eqZEx1u-132" value="用户是否&lt;br&gt;绑定单位？" style="rhombus;whiteSpace=wrap;html=1;" parent="UgdYV5Sys4c05eqZEx1u-32" vertex="1">
          <mxGeometry x="82.5" y="890" width="105" height="100" as="geometry" />
        </mxCell>
        <mxCell id="UgdYV5Sys4c05eqZEx1u-135" value="一个" style="text;html=1;align=center;verticalAlign=middle;resizable=0;points=[];autosize=1;" parent="UgdYV5Sys4c05eqZEx1u-32" vertex="1">
          <mxGeometry x="35" y="1020" width="40" height="20" as="geometry" />
        </mxCell>
        <mxCell id="UgdYV5Sys4c05eqZEx1u-139" value="多个" style="text;html=1;align=center;verticalAlign=middle;resizable=0;points=[];autosize=1;" parent="UgdYV5Sys4c05eqZEx1u-32" vertex="1">
          <mxGeometry x="35" y="1070" width="40" height="20" as="geometry" />
        </mxCell>
        <mxCell id="UgdYV5Sys4c05eqZEx1u-140" value="未绑定" style="text;html=1;align=center;verticalAlign=middle;resizable=0;points=[];autosize=1;" parent="UgdYV5Sys4c05eqZEx1u-32" vertex="1">
          <mxGeometry x="30" y="1150" width="50" height="20" as="geometry" />
        </mxCell>
        <mxCell id="87xFtUxxgs9xbds1OP3f-38" style="edgeStyle=orthogonalEdgeStyle;rounded=0;orthogonalLoop=1;jettySize=auto;html=1;entryX=0.5;entryY=0;entryDx=0;entryDy=0;entryPerimeter=0;" edge="1" parent="UgdYV5Sys4c05eqZEx1u-32" source="UgdYV5Sys4c05eqZEx1u-145" target="UgdYV5Sys4c05eqZEx1u-148">
          <mxGeometry relative="1" as="geometry" />
        </mxCell>
        <mxCell id="UgdYV5Sys4c05eqZEx1u-145" value="钱包是否&lt;br&gt;存在主户？" style="rhombus;whiteSpace=wrap;html=1;" parent="UgdYV5Sys4c05eqZEx1u-32" vertex="1">
          <mxGeometry x="90" y="1390" width="100" height="100" as="geometry" />
        </mxCell>
        <mxCell id="UgdYV5Sys4c05eqZEx1u-148" value="1.创建用户与单位关系&lt;br&gt;（往AbpUser表插入数据，&lt;br&gt;TenantId+当前用户数据）&lt;br&gt;2.绑定“用户”角色&lt;br&gt;" style="strokeWidth=2;html=1;shape=mxgraph.flowchart.direct_data;whiteSpace=wrap;" parent="UgdYV5Sys4c05eqZEx1u-32" vertex="1">
          <mxGeometry x="35" y="1590" width="208.75" height="120" as="geometry" />
        </mxCell>
        <mxCell id="UgdYV5Sys4c05eqZEx1u-157" value="存在" style="text;html=1;align=center;verticalAlign=middle;resizable=0;points=[];autosize=1;" parent="UgdYV5Sys4c05eqZEx1u-32" vertex="1">
          <mxGeometry x="40" y="1490" width="40" height="20" as="geometry" />
        </mxCell>
        <mxCell id="UgdYV5Sys4c05eqZEx1u-180" value="获取钱包信息：&lt;span&gt;&lt;br&gt;单位、设备、&lt;br&gt;计费方案等&lt;br&gt;&lt;br&gt;&lt;/span&gt;" style="strokeWidth=2;html=1;shape=mxgraph.flowchart.direct_data;whiteSpace=wrap;" parent="UgdYV5Sys4c05eqZEx1u-32" vertex="1">
          <mxGeometry x="70" y="1280" width="130" height="70" as="geometry" />
        </mxCell>
        <mxCell id="UgdYV5Sys4c05eqZEx1u-99" value="提交数据" style="text;html=1;align=center;verticalAlign=middle;resizable=0;points=[];autosize=1;" parent="UgdYV5Sys4c05eqZEx1u-32" vertex="1">
          <mxGeometry x="210" y="220" width="60" height="20" as="geometry" />
        </mxCell>
        <mxCell id="87xFtUxxgs9xbds1OP3f-40" value="&lt;br&gt;3.创建用户与主户关系&lt;br&gt;（往关系表插入数据：&lt;br&gt;分户id、主户id、钱包id）" style="strokeWidth=2;html=1;shape=mxgraph.flowchart.direct_data;whiteSpace=wrap;" vertex="1" parent="UgdYV5Sys4c05eqZEx1u-32">
          <mxGeometry x="38.91" y="2070" width="202.18" height="80" as="geometry" />
        </mxCell>
        <mxCell id="87xFtUxxgs9xbds1OP3f-42" value="保存钱包信息：&lt;br&gt;单位、设备（多个）、&lt;br&gt;计费方案" style="strokeWidth=2;html=1;shape=mxgraph.flowchart.direct_data;whiteSpace=wrap;" vertex="1" parent="UgdYV5Sys4c05eqZEx1u-32">
          <mxGeometry x="60" y="770" width="160" height="80" as="geometry" />
        </mxCell>
        <mxCell id="87xFtUxxgs9xbds1OP3f-46" style="edgeStyle=orthogonalEdgeStyle;rounded=0;orthogonalLoop=1;jettySize=auto;html=1;" edge="1" parent="UgdYV5Sys4c05eqZEx1u-32" source="87xFtUxxgs9xbds1OP3f-44" target="87xFtUxxgs9xbds1OP3f-45">
          <mxGeometry relative="1" as="geometry" />
        </mxCell>
        <mxCell id="87xFtUxxgs9xbds1OP3f-48" style="edgeStyle=orthogonalEdgeStyle;rounded=0;orthogonalLoop=1;jettySize=auto;html=1;entryX=0;entryY=0.5;entryDx=0;entryDy=0;entryPerimeter=0;" edge="1" parent="UgdYV5Sys4c05eqZEx1u-32" source="87xFtUxxgs9xbds1OP3f-44" target="87xFtUxxgs9xbds1OP3f-40">
          <mxGeometry relative="1" as="geometry">
            <Array as="points">
              <mxPoint x="140" y="1880" />
              <mxPoint x="28" y="1880" />
              <mxPoint x="28" y="2110" />
            </Array>
          </mxGeometry>
        </mxCell>
        <mxCell id="87xFtUxxgs9xbds1OP3f-44" value="&lt;span&gt;当前用户是否&lt;br&gt;已经绑定钱包&lt;br&gt;所属单位？&lt;/span&gt;" style="rhombus;whiteSpace=wrap;html=1;" vertex="1" parent="UgdYV5Sys4c05eqZEx1u-32">
          <mxGeometry x="90" y="1760" width="100" height="110" as="geometry" />
        </mxCell>
        <mxCell id="87xFtUxxgs9xbds1OP3f-45" value="1.创建用户与单位关系&lt;br&gt;（往AbpUser表插入数据，&lt;br&gt;TenantId+当前用户数据）&lt;br&gt;2.绑定“用户”角色&lt;br&gt;" style="strokeWidth=2;html=1;shape=mxgraph.flowchart.direct_data;whiteSpace=wrap;" vertex="1" parent="UgdYV5Sys4c05eqZEx1u-32">
          <mxGeometry x="42.81" y="1920" width="194.37" height="100" as="geometry" />
        </mxCell>
        <mxCell id="87xFtUxxgs9xbds1OP3f-47" value="未绑定" style="text;html=1;align=center;verticalAlign=middle;resizable=0;points=[];autosize=1;" vertex="1" parent="UgdYV5Sys4c05eqZEx1u-32">
          <mxGeometry x="145" y="1890" width="50" height="20" as="geometry" />
        </mxCell>
        <mxCell id="UgdYV5Sys4c05eqZEx1u-31" value="后台" style="swimlane;html=1;startSize=20;" parent="UgdYV5Sys4c05eqZEx1u-29" vertex="1">
          <mxGeometry x="610" width="240" height="2500" as="geometry" />
        </mxCell>
        <mxCell id="UgdYV5Sys4c05eqZEx1u-80" style="edgeStyle=orthogonalEdgeStyle;rounded=0;orthogonalLoop=1;jettySize=auto;html=1;entryX=0.5;entryY=0;entryDx=0;entryDy=0;" parent="UgdYV5Sys4c05eqZEx1u-31" source="UgdYV5Sys4c05eqZEx1u-77" target="UgdYV5Sys4c05eqZEx1u-78" edge="1">
          <mxGeometry relative="1" as="geometry" />
        </mxCell>
        <mxCell id="UgdYV5Sys4c05eqZEx1u-77" value="平台操作员登录" style="whiteSpace=wrap;html=1;" parent="UgdYV5Sys4c05eqZEx1u-31" vertex="1">
          <mxGeometry x="60" y="130" width="120" height="60" as="geometry" />
        </mxCell>
        <mxCell id="UgdYV5Sys4c05eqZEx1u-107" style="edgeStyle=orthogonalEdgeStyle;rounded=0;orthogonalLoop=1;jettySize=auto;html=1;entryX=0.5;entryY=0;entryDx=0;entryDy=0;" parent="UgdYV5Sys4c05eqZEx1u-31" source="UgdYV5Sys4c05eqZEx1u-78" target="UgdYV5Sys4c05eqZEx1u-106" edge="1">
          <mxGeometry relative="1" as="geometry" />
        </mxCell>
        <mxCell id="UgdYV5Sys4c05eqZEx1u-78" value="进入创建单位界面" style="whiteSpace=wrap;html=1;" parent="UgdYV5Sys4c05eqZEx1u-31" vertex="1">
          <mxGeometry x="60" y="230" width="120" height="60" as="geometry" />
        </mxCell>
        <mxCell id="UgdYV5Sys4c05eqZEx1u-76" value="打开网页" style="ellipse;whiteSpace=wrap;html=1;" parent="UgdYV5Sys4c05eqZEx1u-31" vertex="1">
          <mxGeometry x="65" y="40" width="110" height="60" as="geometry" />
        </mxCell>
        <mxCell id="UgdYV5Sys4c05eqZEx1u-79" style="edgeStyle=orthogonalEdgeStyle;rounded=0;orthogonalLoop=1;jettySize=auto;html=1;entryX=0.5;entryY=0;entryDx=0;entryDy=0;" parent="UgdYV5Sys4c05eqZEx1u-31" source="UgdYV5Sys4c05eqZEx1u-76" target="UgdYV5Sys4c05eqZEx1u-77" edge="1">
          <mxGeometry relative="1" as="geometry" />
        </mxCell>
        <mxCell id="87xFtUxxgs9xbds1OP3f-32" style="edgeStyle=orthogonalEdgeStyle;rounded=0;orthogonalLoop=1;jettySize=auto;html=1;" edge="1" parent="UgdYV5Sys4c05eqZEx1u-31" source="UgdYV5Sys4c05eqZEx1u-105" target="UgdYV5Sys4c05eqZEx1u-123">
          <mxGeometry relative="1" as="geometry" />
        </mxCell>
        <mxCell id="UgdYV5Sys4c05eqZEx1u-105" value="单位管理员登录" style="whiteSpace=wrap;html=1;" parent="UgdYV5Sys4c05eqZEx1u-31" vertex="1">
          <mxGeometry x="60" y="660" width="120" height="60" as="geometry" />
        </mxCell>
        <mxCell id="UgdYV5Sys4c05eqZEx1u-106" value="退出操作员账号" style="whiteSpace=wrap;html=1;" parent="UgdYV5Sys4c05eqZEx1u-31" vertex="1">
          <mxGeometry x="60" y="340" width="120" height="60" as="geometry" />
        </mxCell>
        <mxCell id="87xFtUxxgs9xbds1OP3f-33" style="edgeStyle=orthogonalEdgeStyle;rounded=0;orthogonalLoop=1;jettySize=auto;html=1;entryX=0.5;entryY=0;entryDx=0;entryDy=0;" edge="1" parent="UgdYV5Sys4c05eqZEx1u-31" source="UgdYV5Sys4c05eqZEx1u-123" target="UgdYV5Sys4c05eqZEx1u-127">
          <mxGeometry relative="1" as="geometry" />
        </mxCell>
        <mxCell id="UgdYV5Sys4c05eqZEx1u-123" value="创建账户（钱包）" style="whiteSpace=wrap;html=1;" parent="UgdYV5Sys4c05eqZEx1u-31" vertex="1">
          <mxGeometry x="60" y="780" width="120" height="60" as="geometry" />
        </mxCell>
        <mxCell id="UgdYV5Sys4c05eqZEx1u-127" value="生成钱包二维码" style="whiteSpace=wrap;html=1;" parent="UgdYV5Sys4c05eqZEx1u-31" vertex="1">
          <mxGeometry x="60" y="910" width="120" height="60" as="geometry" />
        </mxCell>
        <mxCell id="87xFtUxxgs9xbds1OP3f-43" style="edgeStyle=orthogonalEdgeStyle;rounded=0;orthogonalLoop=1;jettySize=auto;html=1;entryX=1;entryY=0.5;entryDx=0;entryDy=0;entryPerimeter=0;" edge="1" parent="UgdYV5Sys4c05eqZEx1u-29" source="UgdYV5Sys4c05eqZEx1u-123" target="87xFtUxxgs9xbds1OP3f-42">
          <mxGeometry relative="1" as="geometry" />
        </mxCell>
        <mxCell id="87xFtUxxgs9xbds1OP3f-41" style="edgeStyle=orthogonalEdgeStyle;rounded=0;orthogonalLoop=1;jettySize=auto;html=1;entryX=0.5;entryY=0;entryDx=0;entryDy=0;" edge="1" parent="UgdYV5Sys4c05eqZEx1u-29" source="87xFtUxxgs9xbds1OP3f-35" target="87xFtUxxgs9xbds1OP3f-44">
          <mxGeometry relative="1" as="geometry">
            <mxPoint x="373" y="1790" as="targetPoint" />
            <Array as="points">
              <mxPoint x="170" y="1730" />
              <mxPoint x="470" y="1730" />
            </Array>
          </mxGeometry>
        </mxCell>
        <mxCell id="UgdYV5Sys4c05eqZEx1u-116" style="edgeStyle=orthogonalEdgeStyle;rounded=0;orthogonalLoop=1;jettySize=auto;html=1;entryX=0;entryY=0.75;entryDx=0;entryDy=0;" parent="1" source="UgdYV5Sys4c05eqZEx1u-112" target="UgdYV5Sys4c05eqZEx1u-110" edge="1">
          <mxGeometry relative="1" as="geometry">
            <Array as="points">
              <mxPoint x="1360" y="230" />
              <mxPoint x="1480" y="230" />
              <mxPoint x="1480" y="205" />
            </Array>
          </mxGeometry>
        </mxCell>
        <mxCell id="UgdYV5Sys4c05eqZEx1u-117" style="edgeStyle=orthogonalEdgeStyle;rounded=0;orthogonalLoop=1;jettySize=auto;html=1;entryX=1;entryY=0.5;entryDx=0;entryDy=0;" parent="1" source="UgdYV5Sys4c05eqZEx1u-110" target="UgdYV5Sys4c05eqZEx1u-112" edge="1">
          <mxGeometry relative="1" as="geometry">
            <Array as="points">
              <mxPoint x="1510" y="180" />
              <mxPoint x="1510" y="180" />
            </Array>
          </mxGeometry>
        </mxCell>
        <mxCell id="UgdYV5Sys4c05eqZEx1u-114" style="edgeStyle=orthogonalEdgeStyle;rounded=0;orthogonalLoop=1;jettySize=auto;html=1;" parent="1" source="UgdYV5Sys4c05eqZEx1u-112" target="UgdYV5Sys4c05eqZEx1u-113" edge="1">
          <mxGeometry relative="1" as="geometry" />
        </mxCell>
        <mxCell id="UgdYV5Sys4c05eqZEx1u-112" value="设备创建&lt;br&gt;成功？" style="rhombus;whiteSpace=wrap;html=1;" parent="1" vertex="1">
          <mxGeometry x="1320" y="140" width="80" height="80" as="geometry" />
        </mxCell>
        <mxCell id="UgdYV5Sys4c05eqZEx1u-113" value="保存设备信息" style="strokeWidth=2;html=1;shape=mxgraph.flowchart.direct_data;whiteSpace=wrap;" parent="1" vertex="1">
          <mxGeometry x="1295" y="260" width="130" height="60" as="geometry" />
        </mxCell>
        <mxCell id="UgdYV5Sys4c05eqZEx1u-118" value="提交数据" style="text;html=1;align=center;verticalAlign=middle;resizable=0;points=[];autosize=1;" parent="1" vertex="1">
          <mxGeometry x="1411.25" y="150" width="60" height="20" as="geometry" />
        </mxCell>
        <mxCell id="UgdYV5Sys4c05eqZEx1u-119" value="返回结果" style="text;html=1;align=center;verticalAlign=middle;resizable=0;points=[];autosize=1;" parent="1" vertex="1">
          <mxGeometry x="1411.25" y="200" width="60" height="20" as="geometry" />
        </mxCell>
        <mxCell id="UgdYV5Sys4c05eqZEx1u-110" value="创建设备档案" style="whiteSpace=wrap;html=1;" parent="1" vertex="1">
          <mxGeometry x="1540" y="160" width="120" height="60" as="geometry" />
        </mxCell>
        <mxCell id="UgdYV5Sys4c05eqZEx1u-120" value="成功" style="text;html=1;align=center;verticalAlign=middle;resizable=0;points=[];autosize=1;" parent="1" vertex="1">
          <mxGeometry x="1320" y="230" width="40" height="20" as="geometry" />
        </mxCell>
        <mxCell id="87xFtUxxgs9xbds1OP3f-39" value="不存在" style="text;html=1;align=center;verticalAlign=middle;resizable=0;points=[];autosize=1;" vertex="1" parent="1">
          <mxGeometry x="645" y="1620" width="50" height="20" as="geometry" />
        </mxCell>
        <mxCell id="87xFtUxxgs9xbds1OP3f-49" value="已绑定" style="text;html=1;align=center;verticalAlign=middle;resizable=0;points=[];autosize=1;" vertex="1" parent="1">
          <mxGeometry x="535" y="1920" width="50" height="20" as="geometry" />
        </mxCell>
        <mxCell id="87xFtUxxgs9xbds1OP3f-60" style="edgeStyle=orthogonalEdgeStyle;rounded=0;orthogonalLoop=1;jettySize=auto;html=1;entryX=0;entryY=0.75;entryDx=0;entryDy=0;" edge="1" source="87xFtUxxgs9xbds1OP3f-63" target="87xFtUxxgs9xbds1OP3f-67" parent="1">
          <mxGeometry relative="1" as="geometry">
            <Array as="points">
              <mxPoint x="1360" y="450" />
              <mxPoint x="1480" y="450" />
              <mxPoint x="1480" y="425" />
            </Array>
          </mxGeometry>
        </mxCell>
        <mxCell id="87xFtUxxgs9xbds1OP3f-61" style="edgeStyle=orthogonalEdgeStyle;rounded=0;orthogonalLoop=1;jettySize=auto;html=1;entryX=1;entryY=0.5;entryDx=0;entryDy=0;" edge="1" source="87xFtUxxgs9xbds1OP3f-67" target="87xFtUxxgs9xbds1OP3f-63" parent="1">
          <mxGeometry relative="1" as="geometry">
            <Array as="points">
              <mxPoint x="1510" y="400" />
              <mxPoint x="1510" y="400" />
            </Array>
          </mxGeometry>
        </mxCell>
        <mxCell id="87xFtUxxgs9xbds1OP3f-62" style="edgeStyle=orthogonalEdgeStyle;rounded=0;orthogonalLoop=1;jettySize=auto;html=1;" edge="1" source="87xFtUxxgs9xbds1OP3f-63" target="87xFtUxxgs9xbds1OP3f-64" parent="1">
          <mxGeometry relative="1" as="geometry" />
        </mxCell>
        <mxCell id="87xFtUxxgs9xbds1OP3f-63" value="方案创建&lt;br&gt;成功？" style="rhombus;whiteSpace=wrap;html=1;" vertex="1" parent="1">
          <mxGeometry x="1320" y="360" width="80" height="80" as="geometry" />
        </mxCell>
        <mxCell id="87xFtUxxgs9xbds1OP3f-64" value="保存设备信息" style="strokeWidth=2;html=1;shape=mxgraph.flowchart.direct_data;whiteSpace=wrap;" vertex="1" parent="1">
          <mxGeometry x="1295" y="480" width="130" height="60" as="geometry" />
        </mxCell>
        <mxCell id="87xFtUxxgs9xbds1OP3f-65" value="提交数据" style="text;html=1;align=center;verticalAlign=middle;resizable=0;points=[];autosize=1;" vertex="1" parent="1">
          <mxGeometry x="1411.25" y="370" width="60" height="20" as="geometry" />
        </mxCell>
        <mxCell id="87xFtUxxgs9xbds1OP3f-66" value="返回结果" style="text;html=1;align=center;verticalAlign=middle;resizable=0;points=[];autosize=1;" vertex="1" parent="1">
          <mxGeometry x="1411.25" y="420" width="60" height="20" as="geometry" />
        </mxCell>
        <mxCell id="87xFtUxxgs9xbds1OP3f-67" value="创建计费方案" style="whiteSpace=wrap;html=1;" vertex="1" parent="1">
          <mxGeometry x="1540" y="380" width="120" height="60" as="geometry" />
        </mxCell>
        <mxCell id="87xFtUxxgs9xbds1OP3f-68" value="成功" style="text;html=1;align=center;verticalAlign=middle;resizable=0;points=[];autosize=1;" vertex="1" parent="1">
          <mxGeometry x="1320" y="450" width="40" height="20" as="geometry" />
        </mxCell>
        <mxCell id="87xFtUxxgs9xbds1OP3f-75" value="分户绑定" style="shape=step;perimeter=stepPerimeter;whiteSpace=wrap;html=1;fixedSize=1;" vertex="1" parent="1">
          <mxGeometry x="1435" y="620" width="120" height="80" as="geometry" />
        </mxCell>
        <mxCell id="87xFtUxxgs9xbds1OP3f-76" value="主户绑定" style="shape=step;perimeter=stepPerimeter;whiteSpace=wrap;html=1;fixedSize=1;" vertex="1" parent="1">
          <mxGeometry x="1335" y="620" width="120" height="80" as="geometry" />
        </mxCell>
        <mxCell id="87xFtUxxgs9xbds1OP3f-87" style="edgeStyle=orthogonalEdgeStyle;rounded=0;orthogonalLoop=1;jettySize=auto;html=1;entryX=0.5;entryY=1;entryDx=0;entryDy=0;" edge="1" parent="1" source="87xFtUxxgs9xbds1OP3f-77" target="87xFtUxxgs9xbds1OP3f-76">
          <mxGeometry relative="1" as="geometry">
            <Array as="points">
              <mxPoint x="1695" y="790" />
              <mxPoint x="1395" y="790" />
            </Array>
          </mxGeometry>
        </mxCell>
        <mxCell id="87xFtUxxgs9xbds1OP3f-77" value="主户解绑" style="shape=step;perimeter=stepPerimeter;whiteSpace=wrap;html=1;fixedSize=1;" vertex="1" parent="1">
          <mxGeometry x="1635" y="620" width="120" height="80" as="geometry" />
        </mxCell>
        <mxCell id="87xFtUxxgs9xbds1OP3f-86" style="edgeStyle=orthogonalEdgeStyle;rounded=0;orthogonalLoop=1;jettySize=auto;html=1;entryX=0.5;entryY=1;entryDx=0;entryDy=0;" edge="1" parent="1" source="87xFtUxxgs9xbds1OP3f-78" target="87xFtUxxgs9xbds1OP3f-75">
          <mxGeometry relative="1" as="geometry">
            <Array as="points">
              <mxPoint x="1595" y="740" />
              <mxPoint x="1495" y="740" />
            </Array>
          </mxGeometry>
        </mxCell>
        <mxCell id="87xFtUxxgs9xbds1OP3f-78" value="分户解绑" style="shape=step;perimeter=stepPerimeter;whiteSpace=wrap;html=1;fixedSize=1;" vertex="1" parent="1">
          <mxGeometry x="1534" y="620" width="120" height="80" as="geometry" />
        </mxCell>
        <mxCell id="87xFtUxxgs9xbds1OP3f-80" value="创建钱包" style="shape=hexagon;perimeter=hexagonPerimeter2;whiteSpace=wrap;html=1;fixedSize=1;" vertex="1" parent="1">
          <mxGeometry x="1241" y="620" width="120" height="80" as="geometry" />
        </mxCell>
        <mxCell id="87xFtUxxgs9xbds1OP3f-88" style="edgeStyle=orthogonalEdgeStyle;rounded=0;orthogonalLoop=1;jettySize=auto;html=1;entryX=0.5;entryY=1;entryDx=0;entryDy=0;" edge="1" parent="1" source="87xFtUxxgs9xbds1OP3f-81" target="87xFtUxxgs9xbds1OP3f-80">
          <mxGeometry relative="1" as="geometry">
            <Array as="points">
              <mxPoint x="1790" y="840" />
              <mxPoint x="1301" y="840" />
            </Array>
          </mxGeometry>
        </mxCell>
        <mxCell id="87xFtUxxgs9xbds1OP3f-81" value="删除钱包" style="shape=step;perimeter=stepPerimeter;whiteSpace=wrap;html=1;fixedSize=1;" vertex="1" parent="1">
          <mxGeometry x="1730" y="620" width="120" height="80" as="geometry" />
        </mxCell>
        <mxCell id="87xFtUxxgs9xbds1OP3f-89" value="钱包" style="whiteSpace=wrap;html=1;" vertex="1" parent="1">
          <mxGeometry x="1660" y="890" width="120" height="60" as="geometry" />
        </mxCell>
        <mxCell id="87xFtUxxgs9xbds1OP3f-94" style="edgeStyle=orthogonalEdgeStyle;rounded=0;orthogonalLoop=1;jettySize=auto;html=1;entryX=0.5;entryY=1;entryDx=0;entryDy=0;" edge="1" parent="1" source="87xFtUxxgs9xbds1OP3f-90" target="87xFtUxxgs9xbds1OP3f-89">
          <mxGeometry relative="1" as="geometry">
            <Array as="points">
              <mxPoint x="1560" y="990" />
              <mxPoint x="1720" y="990" />
            </Array>
          </mxGeometry>
        </mxCell>
        <mxCell id="87xFtUxxgs9xbds1OP3f-90" value="主户&lt;br&gt;A" style="whiteSpace=wrap;html=1;" vertex="1" parent="1">
          <mxGeometry x="1500" y="1030" width="120" height="60" as="geometry" />
        </mxCell>
        <mxCell id="87xFtUxxgs9xbds1OP3f-95" style="edgeStyle=orthogonalEdgeStyle;rounded=0;orthogonalLoop=1;jettySize=auto;html=1;entryX=0.5;entryY=1;entryDx=0;entryDy=0;" edge="1" parent="1" source="87xFtUxxgs9xbds1OP3f-91" target="87xFtUxxgs9xbds1OP3f-89">
          <mxGeometry relative="1" as="geometry" />
        </mxCell>
        <mxCell id="87xFtUxxgs9xbds1OP3f-91" value="分户&lt;br&gt;B" style="whiteSpace=wrap;html=1;" vertex="1" parent="1">
          <mxGeometry x="1660" y="1030" width="120" height="60" as="geometry" />
        </mxCell>
        <mxCell id="87xFtUxxgs9xbds1OP3f-96" style="edgeStyle=orthogonalEdgeStyle;rounded=0;orthogonalLoop=1;jettySize=auto;html=1;entryX=0.5;entryY=1;entryDx=0;entryDy=0;" edge="1" parent="1" source="87xFtUxxgs9xbds1OP3f-92" target="87xFtUxxgs9xbds1OP3f-89">
          <mxGeometry relative="1" as="geometry">
            <Array as="points">
              <mxPoint x="1875" y="990" />
              <mxPoint x="1720" y="990" />
            </Array>
          </mxGeometry>
        </mxCell>
        <mxCell id="87xFtUxxgs9xbds1OP3f-92" value="分户&lt;br&gt;C" style="whiteSpace=wrap;html=1;" vertex="1" parent="1">
          <mxGeometry x="1815" y="1030" width="120" height="60" as="geometry" />
        </mxCell>
        <mxCell id="87xFtUxxgs9xbds1OP3f-97" value="钱包" style="whiteSpace=wrap;html=1;" vertex="1" parent="1">
          <mxGeometry x="1655" y="1140" width="120" height="60" as="geometry" />
        </mxCell>
        <mxCell id="87xFtUxxgs9xbds1OP3f-100" style="edgeStyle=orthogonalEdgeStyle;rounded=0;orthogonalLoop=1;jettySize=auto;html=1;entryX=0.5;entryY=1;entryDx=0;entryDy=0;" edge="1" parent="1" source="87xFtUxxgs9xbds1OP3f-101" target="87xFtUxxgs9xbds1OP3f-97">
          <mxGeometry relative="1" as="geometry" />
        </mxCell>
        <mxCell id="87xFtUxxgs9xbds1OP3f-101" value="分户&lt;br&gt;B" style="whiteSpace=wrap;html=1;" vertex="1" parent="1">
          <mxGeometry x="1655" y="1280" width="120" height="60" as="geometry" />
        </mxCell>
        <mxCell id="87xFtUxxgs9xbds1OP3f-102" style="edgeStyle=orthogonalEdgeStyle;rounded=0;orthogonalLoop=1;jettySize=auto;html=1;entryX=0.5;entryY=1;entryDx=0;entryDy=0;" edge="1" parent="1" source="87xFtUxxgs9xbds1OP3f-103" target="87xFtUxxgs9xbds1OP3f-97">
          <mxGeometry relative="1" as="geometry">
            <Array as="points">
              <mxPoint x="1870" y="1240" />
              <mxPoint x="1715" y="1240" />
            </Array>
          </mxGeometry>
        </mxCell>
        <mxCell id="87xFtUxxgs9xbds1OP3f-103" value="分户&lt;br&gt;C" style="whiteSpace=wrap;html=1;" vertex="1" parent="1">
          <mxGeometry x="1810" y="1280" width="120" height="60" as="geometry" />
        </mxCell>
      </root>
    </mxGraphModel>
  </diagram>
</mxfile>
